# xmcd
#
# Track frame offsets: 
#        150
#        11502
#        23797
#        34952
#        48742
#        59775
#        71235
#        85655
#        99282
#        109787
#
# Disc length: 1616 seconds
#
# Revision: 0
# Processed by: cddbd v1.5.2PL0 Copyright (c) Steve Scherf et al.
# Submitted via: ExactAudioCopyFreeDBPlugin 1.0
#
DISCID=85064e0a
DTITLE=ANN PEEBLES - straight from the heart
DYEAR=1978
DGENRE=Soul
TTITLE0=SLIPPED, TRIPPED, AND FEEL IN LOVE
TTITLE1=TROUBLE, HEARTACHES and SADNESS
TTITLE2=WHAT YOU LAID ON ME
TTITLE3=HOW STRONG IS A WOMAN
TTITLE4=SOMEBODY'S ON YOUR CASE
TTITLE5=I FEEL LIKE BREAKING UP SOMEBODY'S HOME
TTITLE6=I'VE BEEN THERE BEFORE
TTITLE7=I PITY THE FOOL
TTITLE8=99 POUNDS
TTITLE9=I TAKE WHAT I WANT
EXTD=
EXTT0=
EXTT1=
EXTT2=
EXTT3=
EXTT4=
EXTT5=
EXTT6=
EXTT7=
EXTT8=
EXTT9=
PLAYORDER=
